PathFileType	4	(X/Y/Z)	/Users/niels/Desktop/University/Third Semester/Perception and Action/Exam/Gymnastics Motion Tracking/Code for Gym Tracking/Analyzed Data/Webcam_Backflip/id6_3_pure_Sports2D/id6_3_pure_Sports2D_px_person00.trc
DataRate	CameraRate	NumFrames	NumMarkers	Units	OrigDataRate	OrigDataStartFrame	OrigNumFrames
29.8125	29.8125	10	22	m	29.8125	20	160
Frame#	Time	Hip			RHip			RKnee			RAnkle			RBigToe			RSmallToe			RHeel			LHip			LKnee			LAnkle			LBigToe			LSmallToe			LHeel			Neck			Head			Nose			RShoulder			RElbow			RWrist			LShoulder			LElbow			LWrist		
		X1	Y1	Z1	X2	Y2	Z2	X3	Y3	Z3	X4	Y4	Z4	X5	Y5	Z5	X6	Y6	Z6	X7	Y7	Z7	X8	Y8	Z8	X9	Y9	Z9	X10	Y10	Z10	X11	Y11	Z11	X12	Y12	Z12	X13	Y13	Z13	X14	Y14	Z14	X15	Y15	Z15	X16	Y16	Z16	X17	Y17	Z17	X18	Y18	Z18	X19	Y19	Z19	X20	Y20	Z20	X21	Y21	Z21	X22	Y22	Z22
20	0.670859538784067	0.9407337913350237	-0.5967193088439718	0.0	0.9380967972024283	-0.5976278375282756	0.0	1.0033286124949836	-0.6716259646753243	0.0	0.961638098724538	-0.7617813222154204	0.0	0.9974074077305525	-0.7789642414129632	0.0	0.9887754642860958	-0.7825376125344345	0.0	0.9484153006278886	-0.7738719680421039	0.0	0.9440910002181658	-0.594567163824501	0.0	1.0017370935605552	-0.6703016178819904	0.0	0.9628515624865264	-0.7578479368541188	0.0	0.997841492241307	-0.7770502334361551	0.0	0.9934208874419084	-0.7761102863142135	0.0	0.9491098772771924	-0.7693333151967601	0.0	0.9947857878203635	-0.48187434588065986	0.0	1.0326054411916465	-0.4203579889387063	0.0	1.0370657722622905	-0.45039086695373687	0.0	0.9897668052648847	-0.49178166504064635	0.0	0.9350372911551899	-0.5186383686453339	0.0	0.883354753177693	-0.54146995836716	0.0	0.9853692407436955	-0.4887498435640253	0.0	0.9344574396049107	-0.5162521972545046	0.0	0.887172699930393	-0.5388473890465572	0.0
21	0.7044025157232703	0.9395445944052179	-0.6108896417911053	0.0	0.937697604555211	-0.6120118464421314	0.0	1.0051099894154094	-0.682917298867486	0.0	0.9620208680142577	-0.7718712210744529	0.0	0.99684292715961	-0.7887413952806219	0.0	0.9883695452899535	-0.7923750110940048	0.0	0.9478302045185183	-0.7830198850351062	0.0	0.9433105299876967	-0.6090145559246335	0.0	1.003975900846001	-0.6818279053380458	0.0	0.9633166080352277	-0.767827736478933	0.0	0.9976807490754702	-0.787897623359808	0.0	0.9932881304812762	-0.7864557151244373	0.0	0.9491127634837397	-0.7788304688628397	0.0	0.9926787090248967	-0.495116118677321	0.0	1.0247525212779809	-0.4320549007608418	0.0	1.0319459949073715	-0.4616506688022618	0.0	0.9865387073766754	-0.5076685008074542	0.0	0.9433708352914341	-0.546504518798854	0.0	0.9034122709533084	-0.5792152672396598	0.0	0.9840086574483378	-0.5037226196529918	0.0	0.9421453185130318	-0.540427330978738	0.0	0.9066635475910696	-0.5693930384363297	0.0
22	0.7379454926624737	0.9390409863531421	-0.6258321351129393	0.0	0.9378591210710344	-0.6272375756877471	0.0	1.0055216466030317	-0.6971469892563897	0.0	0.9621434011636353	-0.7850511028970528	0.0	0.9961127528761005	-0.8014279614915615	0.0	0.9876676876981749	-0.8049460318041644	0.0	0.9472852848612361	-0.7951359967049233	0.0	0.9429084815056142	-0.624287926182824	0.0	1.0046991625392045	-0.6962139410728144	0.0	0.9634091688969888	-0.7812941389731158	0.0	0.9970673178515498	-0.8016165021722493	0.0	0.9923990256772918	-0.7996699489318079	0.0	0.9490461768266655	-0.7914076079214363	0.0	0.9888395969332032	-0.5077500737606379	0.0	1.0148991994164642	-0.44333142727395203	0.0	1.0250148095904261	-0.47269704243834665	0.0	0.9823723339764401	-0.5227836843879438	0.0	0.9559310019038396	-0.5708781715963236	0.0	0.9333664206692691	-0.6097990974469663	0.0	0.9812714680165365	-0.5180335973851286	0.0	0.9545920222046774	-0.5623713966541928	0.0	0.9360178765166416	-0.5954813058358038	0.0
23	0.771488469601677	0.9392350208832975	-0.6399498254729197	0.0	0.9383550556217927	-0.641697536116631	0.0	1.004287378643479	-0.7129975358681735	0.0	0.961988472389771	-0.7999498041477376	0.0	0.9951087510271487	-0.8155949841768425	0.0	0.9865978823442474	-0.8188777872448129	0.0	0.9471321779660953	-0.8089915993485358	0.0	0.9428650070343463	-0.6387373105289198	0.0	1.0034266594827392	-0.7120725921588499	0.0	0.9630796668431032	-0.7967462726610348	0.0	0.9959376317876033	-0.8164885510411614	0.0	0.9905343130416252	-0.8142594817722746	0.0	0.9488265846599684	-0.8056603084148343	0.0	0.983166326344203	-0.5186003211171346	0.0	1.0032138878811305	-0.452966827432086	0.0	1.0162983964224686	-0.4824077647893963	0.0	0.9772943420226515	-0.5353534112820758	0.0	0.97162772432276	-0.5869619919623116	0.0	0.970340546560222	-0.6259018633382234	0.0	0.9769944737054695	-0.5301452959342566	0.0	0.9704743434479348	-0.577030074557348	0.0	0.9719330350127711	-0.6089605457144849	0.0
24	0.8050314465408803	0.9401512049627487	-0.6512462977451777	0.0	0.9391779897753291	-0.6533037135536767	0.0	1.0014080630478701	-0.7282294427612683	0.0	0.9616049828873213	-0.8144973747842064	0.0	0.9937334833088122	-0.8292893033064412	0.0	0.985122497117279	-0.8323163720981412	0.0	0.9475658054455928	-0.8228013644602467	0.0	0.9431735946105182	-0.650318135754364	0.0	1.0000584212348846	-0.7271688785074178	0.0	0.9623093767897963	-0.8118773807438533	0.0	0.9942763376430086	-0.8303727253323226	0.0	0.9877945384772844	-0.8280173083235827	0.0	0.9483306298718452	-0.8195669005074859	0.0	0.9759228103376507	-0.5263994818067792	0.0	0.9897571790644538	-0.45969506624420425	0.0	1.0059403437720273	-0.48932770099562445	0.0	0.9715431087692328	-0.543545598397551	0.0	0.987791453395996	-0.5905294491999711	0.0	1.007546279727069	-0.6215711486023157	0.0	0.9712472492779073	-0.5383820991360947	0.0	0.986680061057456	-0.5801516310738206	0.0	1.0073446052425796	-0.603584221188589	0.0
25	0.8385744234800837	0.9418867182198795	-0.6574376782067815	0.0	0.9406732750818542	-0.6596403403074836	0.0	0.9972209903008007	-0.7399888297435043	0.0	0.9610982594459656	-0.8263004370610483	0.0	0.9917935305853707	-0.8404431552669295	0.0	0.9831443705947259	-0.843203378120496	0.0	0.9484161522452282	-0.8344666424504043	0.0	0.9439656097253645	-0.6567068864571155	0.0	0.9950851827691368	-0.7387087828898228	0.0	0.9611881979048263	-0.8240532492179348	0.0	0.9919942802524163	-0.8411733456808281	0.0	0.9845650280334853	-0.8385968591165203	0.0	0.947637309690817	-0.8308690527675687	0.0	0.9675090913301426	-0.5296950568140331	0.0	0.9746364146544839	-0.4621643388184301	0.0	0.9940810134669477	-0.4917127554125384	0.0	0.9653273979470283	-0.5456167606836582	0.0	1.0006421480084786	-0.5793760559961795	0.0	1.0362490505080353	-0.5952982839126696	0.0	0.9639836417168368	-0.5409935874331715	0.0	0.9988584158969795	-0.5697416937756995	0.0	1.033395356332526	-0.5779654283704353	0.0
26	0.8721174004192871	0.9445218733925517	-0.6563977902338234	0.0	0.9432614015027312	-0.6585074899453406	0.0	0.992533970640627	-0.7453610539044891	0.0	0.9607723526893046	-0.8328736587997912	0.0	0.9891166565080486	-0.847085718079946	0.0	0.9806360863113401	-0.849470500864639	0.0	0.9495560640297714	-0.8417043514854404	0.0	0.9454341957983698	-0.6557595964999302	0.0	0.9895737780576879	-0.7438208489387894	0.0	0.9601197484737956	-0.8306650261000273	0.0	0.9891402480428617	-0.8469957412950431	0.0	0.981406745809805	-0.8439876961593927	0.0	0.9471828737872301	-0.8373712869026728	0.0	0.9581382319092765	-0.5271037628084372	0.0	0.9580999472662407	-0.45898177083654584	0.0	0.9807573922615799	-0.48786131832050483	0.0	0.9584957362345479	-0.5402891625615757	0.0	1.0065912921142826	-0.5542899518251788	0.0	1.0496359016323447	-0.5510058732794011	0.0	0.9549407510667026	-0.5366315397502712	0.0	1.0031584622625276	-0.5468107053041978	0.0	1.0434459763471553	-0.5364200603189389	0.0
27	0.9056603773584905	0.9478646416469654	-0.6467615486111046	0.0	0.9469426673815724	-0.6485677503370166	0.0	0.9887974545192132	-0.7418479155983746	0.0	0.9612904880942882	-0.8317665407243503	0.0	0.9860702196807692	-0.8472855397437606	0.0	0.9780705390115223	-0.8490961679069132	0.0	0.9513652285603678	-0.8420954402154228	0.0	0.9475153220239289	-0.6461297011306985	0.0	0.9850581766342751	-0.7399940536169838	0.0	0.959911976224908	-0.8292861431278158	0.0	0.9863552192033093	-0.8460351789862351	0.0	0.979044407079689	-0.8425460333321249	0.0	0.9477116299538295	-0.8369772305173838	0.0	0.9477139307620401	-0.5178045074347858	0.0	0.940392178797339	-0.44916736431359844	0.0	0.9659087403672104	-0.4767411934027249	0.0	0.95049515473565	-0.5272557505258371	0.0	1.0037210251261575	-0.5189501762462406	0.0	1.0458059375099673	-0.49640199636578286	0.0	0.9439221533078488	-0.5249237468928213	0.0	0.9979880307279784	-0.5148154051372897	0.0	1.036166156096128	-0.4866442654941316	0.0
28	0.9392033542976937	0.9512454037383011	-0.6284410042075569	0.0	0.951018597746531	-0.6298467960732193	0.0	0.987975446149907	-0.7276319320633746	0.0	0.9636728607734091	-0.8208573719553472	0.0	0.9839350117881364	-0.839210603536564	0.0	0.9767148418474805	-0.840254549599278	0.0	0.9547046744762572	-0.8333227786212566	0.0	0.9496477568097431	-0.6277608294899573	0.0	0.9833619408398975	-0.7254051399157726	0.0	0.9616694275662289	-0.8178987489723158	0.0	0.985030165424507	-0.8366026015024249	0.0	0.9784435090301254	-0.8329691582815474	0.0	0.9501835267020177	-0.827749438378359	0.0	0.9359583871084901	-0.5019251732274563	0.0	0.9215642139793947	-0.432776691775878	0.0	0.9494786089508649	-0.4585258111148612	0.0	0.940665280149561	-0.5074951616828011	0.0	0.9925808152980974	-0.4787515650644927	0.0	1.0280656591078814	-0.4401549220591798	0.0	0.9310531234713888	-0.5066972681228163	0.0	0.9845962381370416	-0.47832537894094845	0.0	1.0156020951805431	-0.4362677202042521	0.0
29	0.9727463312368971	0.9536661055954905	-0.6029943088788006	0.0	0.9542962150911993	-0.6040483848138655	0.0	0.9918206978854245	-0.7017894259280653	0.0	0.9690817271948703	-0.7987379383136157	0.0	0.9845619764563819	-0.8213699084644834	0.0	0.9783153055797276	-0.8215829742763667	0.0	0.960632315955833	-0.8135964401305386	0.0	0.9509944561631366	-0.602181456247649	0.0	0.9861182303026401	-0.6991766536269541	0.0	0.9665905409354458	-0.7951897715341223	0.0	0.9869845061020156	-0.8173178890083896	0.0	0.9809051520017316	-0.8142735230486023	0.0	0.9556731476283093	-0.8081751929967134	0.0	0.9226684500193619	-0.48069237969520473	0.0	0.9015490039830868	-0.4111880739267637	0.0	0.9316259497617116	-0.4347121718063236	0.0	0.9286204721526602	-0.4831718096758426	0.0	0.9758954603730687	-0.43917890578667257	0.0	1.0030715554188974	-0.38932732729483555	0.0	0.9168031226681068	-0.4838026747038032	0.0	0.9663778697229841	-0.44182021726130205	0.0	0.9889544120556241	-0.3908112151464714	0.0
